<svg width="40" height="40" viewBox="0 0 40 40" fill="none" xmlns="http://www.w3.org/2000/svg">
<circle cx="20" cy="20" r="19" transform="rotate(-90 20 20)" stroke="white" stroke-width="2"/>
<path d="M28.6258 23.6558C28.3861 23.8762 28.0611 24 27.7222 24C27.3833 24 27.0583 23.8762 26.8186 23.6558L20.4923 17.8373L14.1659 23.6558C13.9249 23.87 13.602 23.9884 13.2669 23.9858C12.9318 23.9831 12.6113 23.8595 12.3743 23.6415C12.1374 23.4236 12.003 23.1288 12 22.8206C11.9971 22.5124 12.126 22.2154 12.3588 21.9937L19.5887 15.3442C19.8284 15.1238 20.1534 15 20.4923 15C20.8312 15 21.1562 15.1238 21.3959 15.3442L28.6258 21.9937C28.8654 22.2142 29 22.5131 29 22.8248C29 23.1365 28.8654 23.4354 28.6258 23.6558Z" fill="white"/>
</svg>
