<svg width="43" height="35" viewBox="0 0 43 35" fill="none" xmlns="http://www.w3.org/2000/svg">
<path d="M42.3778 11.9041V26.8222H39.2889V13.7861V13.1126L38.6975 13.4349L34.8086 15.5543L34.6 15.668V15.9056V27.3348L21.3889 34.5443L8.17778 27.3348V15.9056V15.668L7.9692 15.5543L0.835599 11.6665L21.3889 0.455635L42.3778 11.9041ZM34.8415 12.0178L35.4853 11.6667L34.8415 11.3155L21.5804 4.08218L21.3889 3.9777L21.1973 4.08218L7.93624 11.3155L7.29245 11.6667L7.93624 12.0178L21.1973 19.2512L21.3889 19.3556L21.5804 19.2512L34.8415 12.0178ZM31.3023 25.6292L31.5111 25.5155V25.2778V18.025V17.3509L30.9194 17.6739L21.3889 22.8776L11.8584 17.6739L11.2667 17.3509V18.025V25.2778V25.5155L11.4755 25.6292L21.1977 30.918L21.3889 31.022L21.58 30.918L31.3023 25.6292Z" fill="#EA005A" stroke="white" stroke-width="0.8"/>
</svg>
