<svg width="16" height="135" viewBox="0 0 16 135" fill="none" xmlns="http://www.w3.org/2000/svg">
<path d="M8 135C12.4183 135 16 131.418 16 127C16 122.582 12.4183 119 8 119C3.58172 119 0 122.582 0 127C0 131.418 3.58172 135 8 135ZM9.5 2C9.5 1.17157 8.82843 0.5 8 0.5C7.17157 0.5 6.5 1.17157 6.5 2H9.5ZM9.5 123.635C9.5 122.806 8.82843 122.135 8 122.135C7.17157 122.135 6.5 122.806 6.5 123.635H9.5ZM6.5 105.365C6.5 106.194 7.17157 106.865 8 106.865C8.82843 106.865 9.5 106.194 9.5 105.365H6.5ZM9.5 98.6346C9.5 97.8062 8.82843 97.1346 8 97.1346C7.17157 97.1346 6.5 97.8062 6.5 98.6346H9.5ZM6.5 80.3654C6.5 81.1938 7.17157 81.8654 8 81.8654C8.82843 81.8654 9.5 81.1938 9.5 80.3654H6.5ZM9.5 73.6346C9.5 72.8062 8.82843 72.1346 8 72.1346C7.17157 72.1346 6.5 72.8062 6.5 73.6346H9.5ZM6.5 55.3654C6.5 56.1938 7.17157 56.8654 8 56.8654C8.82843 56.8654 9.5 56.1938 9.5 55.3654H6.5ZM9.5 48.6346C9.5 47.8062 8.82843 47.1346 8 47.1346C7.17157 47.1346 6.5 47.8062 6.5 48.6346H9.5ZM6.5 30.3654C6.5 31.1938 7.17157 31.8654 8 31.8654C8.82843 31.8654 9.5 31.1938 9.5 30.3654H6.5ZM9.5 23.6346C9.5 22.8062 8.82843 22.1346 8 22.1346C7.17157 22.1346 6.5 22.8062 6.5 23.6346H9.5ZM6.5 5.36539C6.5 6.19382 7.17157 6.86539 8 6.86539C8.82843 6.86539 9.5 6.19382 9.5 5.36539H6.5ZM9.5 127V123.635H6.5V127H9.5ZM9.5 105.365V98.6346H6.5V105.365H9.5ZM9.5 80.3654V73.6346H6.5L6.5 80.3654H9.5ZM9.5 55.3654L9.5 48.6346H6.5L6.5 55.3654H9.5ZM9.5 30.3654L9.5 23.6346H6.5V30.3654H9.5ZM9.5 5.36539V2H6.5V5.36539H9.5Z" fill="#EA005A"/>
</svg>
