<svg width="65" height="65" viewBox="0 0 65 65" fill="none" xmlns="http://www.w3.org/2000/svg">
<rect x="1" y="1" width="63" height="63" rx="14" stroke="white" stroke-width="2"/>
<path d="M19 18.5V46.5C19 47.4283 19.3687 48.3185 20.0251 48.9749C20.6815 49.6313 21.5717 50 22.5 50H43.5C44.4283 50 45.3185 49.6313 45.9749 48.9749C46.6313 48.3185 47 47.4283 47 46.5V26.0985C46.9999 25.6322 46.9067 25.1707 46.7258 24.7409C46.5449 24.3112 46.2799 23.9219 45.9465 23.596L38.1765 15.9975C37.5226 15.3582 36.6445 15.0001 35.73 15H22.5C21.5717 15 20.6815 15.3687 20.0251 16.0251C19.3687 16.6815 19 17.5717 19 18.5V18.5Z" stroke="white" stroke-width="3" stroke-linecap="round" stroke-linejoin="round"/>
<path d="M36.5 15V22C36.5 22.9283 36.8687 23.8185 37.5251 24.4749C38.1815 25.1313 39.0717 25.5 40 25.5H47" stroke="white" stroke-width="3" stroke-linejoin="round"/>
</svg>
