<svg width="242" height="16" viewBox="0 0 242 16" fill="none" xmlns="http://www.w3.org/2000/svg">
<path d="M0 8C3.86258e-07 12.4183 3.58172 16 8 16C12.4183 16 16 12.4183 16 8C16 3.58172 12.4183 -3.86258e-07 8 0C3.58172 3.86258e-07 -3.86258e-07 3.58172 0 8ZM226 7.99998C226 12.4183 229.582 16 234 16C238.418 16 242 12.4183 242 7.99998C242 3.5817 238.418 -2.01438e-05 234 -1.97575e-05C229.582 -1.93713e-05 226 3.5817 226 7.99998ZM11.3803 9.5C12.2088 9.5 12.8803 8.82843 12.8803 8C12.8803 7.17157 12.2088 6.5 11.3803 6.5L11.3803 9.5ZM29.7308 6.5C28.9023 6.5 28.2308 7.17157 28.2308 8C28.2308 8.82843 28.9023 9.5 29.7308 9.5L29.7308 6.5ZM36.4915 9.5C37.3199 9.5 37.9915 8.82842 37.9915 8C37.9915 7.17157 37.3199 6.5 36.4915 6.5L36.4915 9.5ZM54.8419 6.5C54.0135 6.5 53.3419 7.17157 53.3419 8C53.3419 8.82842 54.0135 9.5 54.8419 9.5L54.8419 6.5ZM61.6026 9.5C62.431 9.5 63.1026 8.82842 63.1026 8C63.1026 7.17157 62.431 6.5 61.6026 6.5L61.6026 9.5ZM79.953 6.49999C79.1246 6.49999 78.453 7.17157 78.453 7.99999C78.453 8.82842 79.1246 9.49999 79.953 9.49999L79.953 6.49999ZM86.7137 9.49999C87.5421 9.49999 88.2137 8.82842 88.2137 7.99999C88.2137 7.17157 87.5421 6.49999 86.7137 6.49999L86.7137 9.49999ZM105.064 6.49999C104.236 6.49999 103.564 7.17156 103.564 7.99999C103.564 8.82842 104.236 9.49999 105.064 9.49999L105.064 6.49999ZM111.825 9.49999C112.653 9.49999 113.325 8.82842 113.325 7.99999C113.325 7.17156 112.653 6.49999 111.825 6.49999L111.825 9.49999ZM130.175 6.49999C129.347 6.49999 128.675 7.17156 128.675 7.99999C128.675 8.82842 129.347 9.49999 130.175 9.49999L130.175 6.49999ZM136.936 9.49999C137.764 9.49999 138.436 8.82842 138.436 7.99999C138.436 7.17156 137.764 6.49999 136.936 6.49999L136.936 9.49999ZM155.286 6.49999C154.458 6.49999 153.786 7.17156 153.786 7.99999C153.786 8.82841 154.458 9.49999 155.286 9.49999L155.286 6.49999ZM162.047 9.49999C162.875 9.49999 163.547 8.82841 163.547 7.99999C163.547 7.17156 162.875 6.49999 162.047 6.49999L162.047 9.49999ZM180.397 6.49998C179.569 6.49999 178.897 7.17156 178.897 7.99999C178.897 8.82841 179.569 9.49999 180.397 9.49998L180.397 6.49998ZM187.158 9.49998C187.987 9.49998 188.658 8.82841 188.658 7.99998C188.658 7.17156 187.987 6.49998 187.158 6.49998L187.158 9.49998ZM205.509 6.49998C204.68 6.49998 204.009 7.17156 204.009 7.99998C204.009 8.82841 204.68 9.49998 205.509 9.49998L205.509 6.49998ZM212.269 9.49998C213.098 9.49998 213.769 8.82841 213.769 7.99998C213.769 7.17155 213.098 6.49998 212.269 6.49998L212.269 9.49998ZM230.62 6.49998C229.791 6.49998 229.12 7.17155 229.12 7.99998C229.12 8.82841 229.791 9.49998 230.62 9.49998L230.62 6.49998ZM8 9.5L11.3803 9.5L11.3803 6.5L8 6.5L8 9.5ZM29.7308 9.5L36.4915 9.5L36.4915 6.5L29.7308 6.5L29.7308 9.5ZM54.8419 9.5L61.6026 9.5L61.6026 6.5L54.8419 6.5L54.8419 9.5ZM79.953 9.49999L86.7137 9.49999L86.7137 6.49999L79.953 6.49999L79.953 9.49999ZM105.064 9.49999L111.825 9.49999L111.825 6.49999L105.064 6.49999L105.064 9.49999ZM130.175 9.49999L136.936 9.49999L136.936 6.49999L130.175 6.49999L130.175 9.49999ZM155.286 9.49999L162.047 9.49999L162.047 6.49999L155.286 6.49999L155.286 9.49999ZM180.397 9.49998L187.158 9.49998L187.158 6.49998L180.397 6.49998L180.397 9.49998ZM205.509 9.49998L212.269 9.49998L212.269 6.49998L205.509 6.49998L205.509 9.49998ZM230.62 9.49998L234 9.49998L234 6.49998L230.62 6.49998L230.62 9.49998Z" fill="#EA005A"/>
</svg>
