<svg width="65" height="65" viewBox="0 0 65 65" fill="none" xmlns="http://www.w3.org/2000/svg">
<rect x="1" y="1" width="63" height="63" rx="14" stroke="white" stroke-width="2"/>
<path fill-rule="evenodd" clip-rule="evenodd" d="M38.5308 19.5159C38.5308 18.3182 39.0066 17.1696 39.8535 16.3227C40.7004 15.4758 41.849 15 43.0467 15C44.2444 15 45.393 15.4758 46.2399 16.3227C47.0868 17.1696 47.5626 18.3182 47.5626 19.5159C47.5626 20.7136 47.0868 21.8622 46.2399 22.7091C45.393 23.556 44.2444 24.0318 43.0467 24.0318C41.849 24.0318 40.7004 23.556 39.8535 22.7091C39.0066 21.8622 38.5308 20.7136 38.5308 19.5159ZM43.0467 17.2579C42.4479 17.2579 41.8735 17.4958 41.4501 17.9193C41.0266 18.3427 40.7888 18.917 40.7888 19.5159C40.7888 20.1147 41.0266 20.689 41.4501 21.1125C41.8735 21.5359 42.4479 21.7738 43.0467 21.7738C43.6455 21.7738 44.2199 21.5359 44.6433 21.1125C45.0667 20.689 45.3046 20.1147 45.3046 19.5159C45.3046 18.917 45.0667 18.3427 44.6433 17.9193C44.2199 17.4958 43.6455 17.2579 43.0467 17.2579ZM16.5159 25.1607C16.33 25.1606 16.147 25.2064 15.9831 25.294C15.8192 25.3816 15.6794 25.5083 15.5762 25.6628C15.473 25.8174 15.4095 25.9951 15.3915 26.1801C15.3734 26.365 15.4013 26.5516 15.4727 26.7232C14.4442 27.1522 13.5656 27.8759 12.9476 28.8033C12.3296 29.7307 11.9999 30.8202 12 31.9346V34.1925C11.9997 35.2911 12.32 36.366 12.9216 37.2853C13.5232 38.2045 14.38 38.9283 15.3869 39.3677V46.6112C15.3865 47.3389 15.6205 48.0475 16.0543 48.6318C16.488 49.2162 17.0985 49.6453 17.7952 49.8555C18.4919 50.0658 19.2378 50.0461 19.9224 49.7993C20.6071 49.5525 21.194 49.0917 21.5963 48.4853C21.9985 49.0917 22.5854 49.5525 23.2701 49.7993C23.9547 50.0461 24.7006 50.0658 25.3973 49.8555C26.094 49.6453 26.7045 49.2162 27.1382 48.6318C27.572 48.0475 27.806 47.3389 27.8056 46.6112V39.3677C28.8125 38.9283 29.6693 38.2045 30.2709 37.2853C30.8725 36.366 31.1928 35.2911 31.1925 34.1925V31.9346C31.1927 30.8201 30.8631 29.7306 30.2451 28.8032C29.6271 27.8758 28.7484 27.1521 27.7198 26.7232C27.7912 26.5516 27.8191 26.365 27.801 26.1801C27.783 25.9951 27.7195 25.8174 27.6163 25.6628C27.5131 25.5083 27.3733 25.3816 27.2094 25.294C27.0455 25.2064 26.8625 25.1606 26.6766 25.1607H16.5159ZM17.6449 38.5661V36.3534C18.1393 36.2678 18.6128 36.0889 19.0403 35.8261C19.7684 35.3689 20.2234 34.7028 20.5045 33.9532C20.7789 33.2261 20.9019 32.3873 20.964 31.5101C21.0272 30.6261 21.0318 29.6224 21.0318 28.5476H22.1607C22.1607 29.6224 22.1653 30.625 22.2285 31.5101C22.2906 32.3873 22.4136 33.2261 22.6868 33.9532C22.9691 34.7028 23.4241 35.3689 24.1522 35.8273C24.57 36.0892 25.0385 36.2585 25.5476 36.3534V46.6112C25.5461 46.9025 25.432 47.182 25.2292 47.3912C25.0264 47.6004 24.7505 47.723 24.4594 47.7335C24.1682 47.744 23.8842 47.6415 23.6669 47.4475C23.4495 47.2535 23.3156 46.983 23.2931 46.6925L22.723 38.7084C22.7028 38.4235 22.5754 38.1568 22.3664 37.9621C22.1574 37.7674 21.8824 37.6592 21.5968 37.6592C21.3112 37.6592 21.0362 37.7674 20.8272 37.9621C20.6183 38.1568 20.4909 38.4235 20.4707 38.7084L19.9005 46.6925C19.8821 46.9861 19.7498 47.261 19.5318 47.4586C19.3137 47.6561 19.0272 47.7607 18.7331 47.7501C18.4391 47.7396 18.1608 47.6146 17.9575 47.4018C17.7542 47.1891 17.6421 46.9054 17.6449 46.6112V38.5661ZM14.2579 34.1925C14.2579 35.195 14.6937 36.0971 15.3869 36.7169V30.8056H17.6449V34.0153C17.7194 33.9836 17.7826 33.9498 17.8368 33.9159C18.0547 33.7793 18.2398 33.5614 18.3922 33.1595C18.5514 32.7327 18.6553 32.1479 18.7117 31.3498C18.7682 30.5595 18.7738 29.6337 18.7738 28.5476H17.6449C16.7466 28.5476 15.8851 28.9045 15.2499 29.5397C14.6148 30.1748 14.2579 31.0363 14.2579 31.9346V34.1925ZM28.9346 34.1925C28.9346 35.195 28.4988 36.0971 27.8056 36.7169V30.8056H25.5476V34.0153C25.4811 33.9874 25.4169 33.9542 25.3557 33.9159C25.1378 33.7793 24.9527 33.5614 24.8003 33.1595C24.6411 32.7327 24.5372 32.1479 24.4808 31.3498C24.4243 30.5595 24.4187 29.6337 24.4187 28.5476H25.5476C26.4459 28.5476 27.3074 28.9045 27.9426 29.5397C28.5777 30.1748 28.9346 31.0363 28.9346 31.9346V34.1925ZM36.9232 26.7232C35.8946 27.1522 35.016 27.8759 34.3981 28.8033C33.7801 29.7307 33.4504 30.8202 33.4504 31.9346V34.1925C33.4504 36.193 34.4914 37.9497 36.0584 38.9511L34.6765 41.0002C33.7361 42.3933 34.5941 44.3126 36.2988 44.4865C38.1018 44.6694 40.9231 44.9177 43.0467 44.9177C45.1692 44.9177 47.9916 44.6694 49.7946 44.4865C51.4993 44.3126 52.3573 42.3933 51.4169 41.0002L50.035 38.9511C50.8348 38.4413 51.4931 37.7379 51.949 36.9061C52.4048 36.0743 52.6435 35.141 52.6429 34.1925V31.9346C52.6432 30.8201 52.3135 29.7306 51.6955 28.8032C51.0775 27.8758 50.1989 27.1521 49.1702 26.7232C49.2416 26.5516 49.2695 26.365 49.2515 26.1801C49.2334 25.9951 49.17 25.8174 49.0668 25.6628C48.9636 25.5083 48.8238 25.3816 48.6599 25.294C48.4959 25.2064 48.3129 25.1606 48.1271 25.1607H37.9663C37.7805 25.1606 37.5975 25.2064 37.4335 25.294C37.2696 25.3816 37.1298 25.5083 37.0266 25.6628C36.9234 25.8174 36.86 25.9951 36.8419 26.1801C36.8239 26.365 36.8518 26.5516 36.9232 26.7232ZM35.7084 31.9346C35.7084 31.0363 36.0652 30.1748 36.7004 29.5397C37.3356 28.9045 38.197 28.5476 39.0953 28.5476H40.2243C40.2243 29.6337 40.2186 30.5583 40.1622 31.3498C40.1057 32.1479 40.0019 32.7327 39.8427 33.1584C39.6903 33.5614 39.5051 33.7793 39.2884 33.9148C39.2269 33.9535 39.1623 33.9871 39.0953 34.0153V31.9346H36.8374V36.7169C36.1442 36.0959 35.7084 35.195 35.7084 34.1925V31.9346ZM39.5074 37.8786L39.0953 37.7476V36.3534C39.5897 36.2678 40.0633 36.0889 40.4907 35.8261C41.2189 35.3689 41.6739 34.7028 41.955 33.9532C42.2293 33.2261 42.3524 32.3873 42.4145 31.5101C42.4777 30.6261 42.4822 29.6224 42.4822 28.5476H43.6112C43.6112 29.6224 43.6157 30.625 43.6789 31.5101C43.741 32.3873 43.8641 33.2261 44.1384 33.9532C44.4207 34.7028 44.8745 35.3689 45.6027 35.8273C46.0204 36.0892 46.4889 36.2585 46.9981 36.3534V37.7476L46.586 37.8786L49.5326 42.2432C47.7319 42.4261 45.0326 42.6598 43.0467 42.6598C41.0608 42.6598 38.3615 42.4261 36.5619 42.2432L39.5085 37.8786H39.5074ZM49.256 36.7169C49.9492 36.0959 50.385 35.195 50.385 34.1925V31.9346C50.385 31.0363 50.0282 30.1748 49.393 29.5397C48.7578 28.9045 47.8964 28.5476 46.9981 28.5476H45.8691C45.8691 29.6337 45.8748 30.5583 45.9312 31.3498C45.9877 32.1479 46.0915 32.7327 46.2507 33.1584C46.4031 33.5614 46.5883 33.7793 46.805 33.9148C46.8604 33.9498 46.9236 33.9836 46.9981 34.0153V31.9346H49.256V36.7169Z" fill="white"/>
<path d="M41.0936 46.7756C39.8581 46.7073 38.6264 46.5842 37.4019 46.4064V47.742C37.4022 48.1539 37.5527 48.5515 37.8252 48.8605C38.0976 49.1694 38.4733 49.3684 38.8819 49.4203C39.2905 49.4723 39.704 49.3735 40.0451 49.1425C40.3861 48.9115 40.6312 48.5641 40.7346 48.1654L41.0936 46.7756ZM44.9976 46.7666L45.3588 48.1665C45.4622 48.5653 45.7075 48.9127 46.0486 49.1437C46.3897 49.3747 46.8034 49.4735 47.2121 49.4214C47.6208 49.3693 47.9965 49.1701 48.2688 48.861C48.5411 48.5518 48.6914 48.154 48.6916 47.742V46.3906C47.4661 46.5685 46.2337 46.6943 44.9976 46.7677V46.7666Z" fill="white"/>
<path fill-rule="evenodd" clip-rule="evenodd" d="M21.5963 15C20.3986 15 19.2499 15.4758 18.4031 16.3227C17.5562 17.1696 17.0804 18.3182 17.0804 19.5159C17.0804 20.7136 17.5562 21.8622 18.4031 22.7091C19.2499 23.556 20.3986 24.0318 21.5963 24.0318C22.794 24.0318 23.9426 23.556 24.7895 22.7091C25.6364 21.8622 26.1121 20.7136 26.1121 19.5159C26.1121 18.3182 25.6364 17.1696 24.7895 16.3227C23.9426 15.4758 22.794 15 21.5963 15ZM19.3383 19.5159C19.3383 18.917 19.5762 18.3427 19.9997 17.9193C20.4231 17.4958 20.9974 17.2579 21.5963 17.2579C22.1951 17.2579 22.7694 17.4958 23.1929 17.9193C23.6163 18.3427 23.8542 18.917 23.8542 19.5159C23.8542 20.1147 23.6163 20.689 23.1929 21.1125C22.7694 21.5359 22.1951 21.7738 21.5963 21.7738C20.9974 21.7738 20.4231 21.5359 19.9997 21.1125C19.5762 20.689 19.3383 20.1147 19.3383 19.5159Z" fill="white"/>
</svg>
