<svg width="16" height="101" viewBox="0 0 16 101" fill="none" xmlns="http://www.w3.org/2000/svg">
<path d="M8 0C3.58172 -1.93129e-07 1.93129e-07 3.58172 0 8C-1.93129e-07 12.4183 3.58172 16 8 16C12.4183 16 16 12.4183 16 8C16 3.58172 12.4183 1.93129e-07 8 0ZM8 85C3.58172 85 -3.52234e-06 88.5817 -3.71547e-06 93C-3.9086e-06 97.4183 3.58172 101 8 101C12.4183 101 16 97.4183 16 93C16 88.5817 12.4183 85 8 85ZM6.5 11.8141C6.5 12.6425 7.17157 13.3141 8 13.3141C8.82843 13.3141 9.5 12.6425 9.5 11.8141L6.5 11.8141ZM9.5 32.5192C9.5 31.6908 8.82843 31.0192 8 31.0192C7.17157 31.0192 6.5 31.6908 6.5 32.5192L9.5 32.5192ZM6.5 40.1474C6.5 40.9759 7.17157 41.6474 8 41.6474C8.82843 41.6474 9.5 40.9759 9.5 40.1474L6.5 40.1474ZM9.5 60.8526C9.5 60.0241 8.82842 59.3526 8 59.3526C7.17157 59.3526 6.5 60.0241 6.5 60.8526L9.5 60.8526ZM6.5 68.4808C6.5 69.3092 7.17157 69.9808 8 69.9808C8.82842 69.9808 9.5 69.3092 9.5 68.4808L6.5 68.4808ZM9.5 89.1859C9.5 88.3575 8.82842 87.6859 8 87.6859C7.17157 87.6859 6.5 88.3575 6.5 89.1859L9.5 89.1859ZM6.5 8L6.5 11.8141L9.5 11.8141L9.5 8L6.5 8ZM6.5 32.5192L6.5 40.1474L9.5 40.1474L9.5 32.5192L6.5 32.5192ZM6.5 60.8526L6.5 68.4808L9.5 68.4808L9.5 60.8526L6.5 60.8526ZM6.5 89.1859L6.5 93L9.5 93L9.5 89.1859L6.5 89.1859Z" fill="#EA005A"/>
</svg>
