<svg width="35" height="35" viewBox="0 0 35 35" fill="none" xmlns="http://www.w3.org/2000/svg">
<path d="M34.9169 7.24224C34.9998 7.44205 35.0216 7.66196 34.9796 7.87417C34.9375 8.08638 34.8335 8.28135 34.6806 8.43443L30.3056 12.8094C30.2039 12.9109 30.0831 12.9914 29.9502 13.0462C29.8174 13.101 29.675 13.1291 29.5312 13.1288H23.4216L20.4619 16.0885C20.7955 16.787 20.8715 17.5809 20.6763 18.3299C20.4812 19.079 20.0275 19.7349 19.3956 20.1818C18.7636 20.6287 17.9939 20.8378 17.2227 20.7722C16.4514 20.7065 15.7282 20.3703 15.1809 19.8229C14.6335 19.2756 14.2973 18.5524 14.2316 17.7811C14.166 17.0099 14.3751 16.2402 14.822 15.6083C15.2689 14.9763 15.9248 14.5226 16.6739 14.3275C17.4229 14.1323 18.2169 14.2083 18.9153 14.5419L21.875 11.5822V5.47256C21.8747 5.32883 21.9028 5.18645 21.9576 5.05358C22.0124 4.92071 22.0929 4.79994 22.1944 4.69818L26.5694 0.32318C26.7223 0.169821 26.9174 0.0653368 27.1298 0.022972C27.3423 -0.0193929 27.5625 0.00227011 27.7626 0.0852147C27.9627 0.168159 28.1336 0.30865 28.2538 0.488876C28.374 0.669102 28.4379 0.880948 28.4375 1.09756V6.56631H33.9062C34.1227 6.56634 34.3342 6.63059 34.5141 6.75091C34.694 6.87123 34.8342 7.04223 34.9169 7.24224ZM31.2659 8.75381H27.3438C27.0537 8.75381 26.7755 8.63857 26.5704 8.43345C26.3652 8.22834 26.25 7.95014 26.25 7.66006V3.73787L24.0625 5.92537V10.9413H29.0784L31.2659 8.75381ZM34.1403 12.0679C34.6981 13.7785 35 15.6072 35 17.5038C34.9992 21.2005 33.8278 24.8021 31.6537 27.7919C29.4796 30.7818 26.4145 33.0064 22.898 34.1467C19.3816 35.2869 15.5943 35.2844 12.0794 34.1393C8.56446 32.9943 5.50243 30.7655 3.33239 27.7727C1.16236 24.7799 -0.00419755 21.1768 1.13492e-05 17.4801C0.00422024 13.7833 1.17898 10.1829 3.35582 7.19504C5.53266 4.20719 8.59976 1.98544 12.1173 0.84838C15.6348 -0.288675 19.4221 -0.282619 22.9359 0.86568L21.1684 2.63318C17.9213 1.83254 14.5013 2.117 11.4311 3.4431C8.36081 4.7692 5.80913 7.064 4.16592 9.97687C2.52271 12.8897 1.87832 16.2605 2.33123 19.5741C2.78414 22.8877 4.30943 25.9619 6.67404 28.3269C9.03865 30.692 12.1125 32.2179 15.426 32.6715C18.7395 33.125 22.1104 32.4813 25.0236 30.8386C27.9368 29.196 30.2321 26.6448 31.5588 23.5748C32.8855 20.5048 33.1706 17.0849 32.3706 13.8376L34.1403 12.0679ZM28.2188 15.3163C28.6886 17.6199 28.4036 20.0135 27.4061 22.1424C26.4087 24.2714 24.7518 26.0222 22.6811 27.1355C20.6104 28.2487 18.236 28.6652 15.9101 28.323C13.5841 27.9808 11.4303 26.8983 9.76787 25.2359C8.10546 23.5735 7.02296 21.4197 6.6808 19.0937C6.33865 16.7678 6.75507 14.3935 7.86833 12.3227C8.9816 10.252 10.7324 8.59514 12.8614 7.59767C14.9903 6.60021 17.3839 6.31525 19.6875 6.78506V9.02943C17.8292 8.55002 15.8647 8.69489 14.0968 9.44171C12.3289 10.1885 10.8556 11.4959 9.90372 13.1624C8.95189 14.8289 8.57437 16.7622 8.82931 18.6644C9.08425 20.5665 9.95751 22.3321 11.3146 23.6892C12.6717 25.0463 14.4373 25.9196 16.3394 26.1745C18.2416 26.4294 20.1749 26.0519 21.8414 25.1001C23.5079 24.1483 24.8153 22.6749 25.5621 20.907C26.3089 19.1391 26.4538 17.1747 25.9744 15.3163H28.2188Z" fill="#EA005A"/>
</svg>
