<svg width="21" height="13" viewBox="0 0 21 13" fill="none" xmlns="http://www.w3.org/2000/svg">
<path d="M13.338 0.859932H18.4355V2.11357H13.338V0.859932ZM8.2302 5.82008C9.35703 5.27356 9.94727 4.44212 9.94727 3.1574C9.94727 0.616457 8.082 0 5.92799 0H0V12.7539H6.09408C8.3784 12.7539 10.5222 11.6402 10.5222 9.05001C10.5222 7.44929 9.77607 6.26559 8.2302 5.82008ZM2.76469 2.17573H5.35819C6.35726 2.17573 7.25412 2.45806 7.25412 3.63399C7.25412 4.71668 6.55656 5.15182 5.56771 5.15182H2.76469V2.17573ZM5.71591 10.5886H2.76214V7.07631H5.77468C6.99094 7.07631 7.76005 7.59175 7.76005 8.89719C7.76005 10.1819 6.84274 10.5886 5.71591 10.5886ZM20.4286 8.27037C20.4286 5.53776 18.852 3.26101 16.0005 3.26101C13.2281 3.26101 11.3424 5.37717 11.3424 8.15123C11.3424 11.0263 13.1285 13 16.0005 13C18.1749 13 19.5828 12.008 20.2599 9.89181H18.0548C17.8146 10.6818 16.8386 11.0962 16.0797 11.0962C14.613 11.0962 13.8465 10.2259 13.8465 8.74696H20.4107C20.4184 8.59414 20.4286 8.43355 20.4286 8.27037ZM13.8465 7.14624C13.9257 5.93146 14.7254 5.17254 15.9213 5.17254C17.1784 5.17254 17.807 5.9211 17.9168 7.14624H13.8465Z" fill="white"/>
</svg>
