<svg width="17" height="17" viewBox="0 0 17 17" fill="none" xmlns="http://www.w3.org/2000/svg">
<path d="M8.5 16C12.6421 16 16 12.6421 16 8.5C16 4.35786 12.6421 1 8.5 1C4.35786 1 1 4.35786 1 8.5C1 12.6421 4.35786 16 8.5 16Z" stroke="white" stroke-width="1.5" stroke-linecap="round" stroke-linejoin="round"/>
<path d="M1.5 6H15.5M1.5 11H15.5M8.08333 1C6.67945 3.24968 5.93517 5.84822 5.93517 8.5C5.93517 11.1518 6.67945 13.7503 8.08333 16M8.91667 1C10.3205 3.24968 11.0648 5.84822 11.0648 8.5C11.0648 11.1518 10.3205 13.7503 8.91667 16" stroke="white" stroke-width="1.5" stroke-linecap="round" stroke-linejoin="round"/>
</svg>
