<svg width="65" height="65" viewBox="0 0 65 65" fill="none" xmlns="http://www.w3.org/2000/svg">
<rect x="1" y="1" width="63" height="63" rx="14" stroke="white" stroke-width="2"/>
<path d="M40.8754 19.1761L45.7996 24.1003M42.9996 36.9335V45.8001C42.9996 46.914 42.5571 47.9822 41.7695 48.7699C40.9819 49.5575 39.9136 50 38.7997 50H19.1999C18.086 50 17.0178 49.5575 16.2301 48.7699C15.4425 47.9822 15 46.914 15 45.8001V26.2003C15 25.0864 15.4425 24.0181 16.2301 23.2305C17.0178 22.4429 18.086 22.0004 19.1999 22.0004H28.0665M40.8754 19.1761L44.0244 16.0252C44.6809 15.3688 45.5712 15 46.4996 15C47.428 15 48.3183 15.3688 48.9748 16.0252C49.6312 16.6817 50 17.572 50 18.5004C50 19.4288 49.6312 20.3191 48.9748 20.9756L29.1529 40.7975C28.166 41.7837 26.9491 42.5086 25.6119 42.9068L20.5999 44.4001L22.0932 39.3881C22.4914 38.0509 23.2163 36.834 24.2025 35.8471L40.8754 19.1761V19.1761Z" stroke="white" stroke-width="3" stroke-linecap="round" stroke-linejoin="round"/>
</svg>
