<svg width="173" height="158" viewBox="0 0 173 158" fill="none" xmlns="http://www.w3.org/2000/svg">
<path d="M8 158C12.4183 158 16 154.418 16 150C16 145.582 12.4183 142 8 142C3.58172 142 0 145.582 0 150C0 154.418 3.58172 158 8 158ZM9.5 25C9.5 24.1716 8.82843 23.5 8 23.5C7.17157 23.5 6.5 24.1716 6.5 25H9.5ZM9.5 146.635C9.5 145.806 8.82843 145.135 8 145.135C7.17157 145.135 6.5 145.806 6.5 146.635H9.5ZM6.5 128.365C6.5 129.194 7.17157 129.865 8 129.865C8.82843 129.865 9.5 129.194 9.5 128.365H6.5ZM9.5 121.635C9.5 120.806 8.82843 120.135 8 120.135C7.17157 120.135 6.5 120.806 6.5 121.635H9.5ZM6.5 103.365C6.5 104.194 7.17157 104.865 8 104.865C8.82843 104.865 9.5 104.194 9.5 103.365H6.5ZM9.5 96.6346C9.5 95.8062 8.82843 95.1346 8 95.1346C7.17157 95.1346 6.5 95.8062 6.5 96.6346H9.5ZM6.5 78.3654C6.5 79.1938 7.17157 79.8654 8 79.8654C8.82843 79.8654 9.5 79.1938 9.5 78.3654H6.5ZM9.5 71.6346C9.5 70.8062 8.82843 70.1346 8 70.1346C7.17157 70.1346 6.5 70.8062 6.5 71.6346H9.5ZM6.5 53.3654C6.5 54.1938 7.17157 54.8654 8 54.8654C8.82843 54.8654 9.5 54.1938 9.5 53.3654H6.5ZM9.5 46.6346C9.5 45.8062 8.82843 45.1346 8 45.1346C7.17157 45.1346 6.5 45.8062 6.5 46.6346H9.5ZM6.5 28.3654C6.5 29.1938 7.17157 29.8654 8 29.8654C8.82843 29.8654 9.5 29.1938 9.5 28.3654H6.5ZM9.5 150V146.635H6.5V150H9.5ZM9.5 128.365V121.635H6.5V128.365H9.5ZM9.5 103.365V96.6346H6.5L6.5 103.365H9.5ZM9.5 78.3654L9.5 71.6346H6.5L6.5 78.3654H9.5ZM9.5 53.3654L9.5 46.6346H6.5V53.3654H9.5ZM9.5 28.3654V25H6.5V28.3654H9.5Z" fill="#EA005A"/>
<path d="M8 2L171 1.99999" stroke="url(#paint0_linear_82_8)" stroke-width="3" stroke-linecap="round" stroke-linejoin="round" stroke-dasharray="7 19"/>
<defs>
<linearGradient id="paint0_linear_82_8" x1="89.5" y1="2.00001" x2="171" y2="2.00001" gradientUnits="userSpaceOnUse">
<stop stop-color="#EA005A"/>
<stop offset="1" stop-color="#EA005A" stop-opacity="0"/>
</linearGradient>
</defs>
</svg>
