<svg width="39" height="39" viewBox="0 0 39 39" fill="none" xmlns="http://www.w3.org/2000/svg">
<path d="M27.8754 6.17614L32.7996 11.1003M29.9996 23.9335V32.8001C29.9996 33.914 29.5571 34.9822 28.7695 35.7699C27.9819 36.5575 26.9136 37 25.7997 37H6.19994C5.08605 37 4.01778 36.5575 3.23014 35.7699C2.44249 34.9822 2 33.914 2 32.8001V13.2003C2 12.0864 2.44249 11.0181 3.23014 10.2305C4.01778 9.44286 5.08605 9.00037 6.19994 9.00037H15.0665M27.8754 6.17614L31.0244 3.02525C31.6809 2.36879 32.5712 2 33.4996 2C34.428 2 35.3183 2.36879 35.9748 3.02525C36.6312 3.6817 37 4.57205 37 5.50042C37 6.42878 36.6312 7.31913 35.9748 7.97558L16.1529 27.7975C15.166 28.7837 13.9491 29.5086 12.6119 29.9068L7.59993 31.4001L9.09324 26.3881C9.49135 25.0509 10.2163 23.834 11.2025 22.8471L27.8754 6.17614V6.17614Z" stroke="white" stroke-width="3" stroke-linecap="round" stroke-linejoin="round"/>
</svg>
