<svg width="37" height="35" viewBox="0 0 37 35" fill="none" xmlns="http://www.w3.org/2000/svg">
<path d="M36.9117 7.24224C36.9993 7.44205 37.0224 7.66196 36.9779 7.87417C36.9335 8.08638 36.8235 8.28135 36.6619 8.43443L32.037 12.8094C31.9294 12.9109 31.8017 12.9914 31.6613 13.0462C31.5208 13.101 31.3703 13.1291 31.2184 13.1288H24.7596L21.6308 16.0885C21.9835 16.787 22.0638 17.5809 21.8576 18.3299C21.6513 19.079 21.1717 19.7349 20.5036 20.1818C19.8355 20.6287 19.0219 20.8378 18.2066 20.7722C17.3913 20.7065 16.6267 20.3703 16.0481 19.8229C15.4695 19.2756 15.1141 18.5524 15.0447 17.7811C14.9753 17.0099 15.1963 16.2402 15.6687 15.6083C16.1412 14.9763 16.8346 14.5226 17.6265 14.3275C18.4183 14.1323 19.2576 14.2083 19.9959 14.5419L23.1247 11.5822V5.47256C23.1244 5.32883 23.1541 5.18645 23.212 5.05358C23.27 4.92071 23.355 4.79994 23.4623 4.69818L28.0873 0.32318C28.249 0.169821 28.4552 0.0653368 28.6797 0.022972C28.9043 -0.0193929 29.1371 0.00227011 29.3486 0.0852147C29.5602 0.168159 29.7409 0.30865 29.8679 0.488876C29.9949 0.669102 30.0625 0.880948 30.0621 1.09756V6.56631H35.8433C36.0721 6.56634 36.2957 6.63059 36.4859 6.75091C36.6761 6.87123 36.8243 7.04223 36.9117 7.24224V7.24224ZM33.0521 8.75381H28.9059C28.5992 8.75381 28.3051 8.63857 28.0883 8.43345C27.8715 8.22834 27.7496 7.95014 27.7496 7.66006V3.73787L25.4372 5.92537V10.9413H30.7397L33.0521 8.75381ZM36.0907 12.0679C36.6804 13.7785 36.9995 15.6072 36.9995 17.5038C36.9987 21.2005 35.7603 24.8021 33.462 27.7919C31.1637 30.7818 27.9236 33.0064 24.2062 34.1467C20.4888 35.287 16.4852 35.2844 12.7695 34.1393C9.05374 32.9943 5.81678 30.7655 3.52277 27.7727C1.22876 24.7799 -0.00443735 21.1768 1.19976e-05 17.4801C0.00446134 13.7833 1.24633 10.1829 3.54754 7.19504C5.84874 4.20719 9.09106 1.98544 12.8095 0.84838C16.528 -0.288675 20.5316 -0.282619 24.2463 0.86568L22.3778 2.63318C18.9451 1.83254 15.3298 2.117 12.0841 3.4431C8.83846 4.7692 6.14101 7.064 4.40392 9.97687C2.66683 12.8897 1.98563 16.2605 2.46441 19.5741C2.94319 22.8877 4.55562 25.9619 7.05532 28.3269C9.55503 30.692 12.8045 32.2179 16.3073 32.6715C19.8101 33.125 23.3736 32.4813 26.4532 30.8386C29.5328 29.196 31.9592 26.6448 33.3617 23.5748C34.7642 20.5048 35.0656 17.0849 34.2199 13.8376L36.0907 12.0679V12.0679ZM29.8309 15.3163C30.3275 17.6199 30.0263 20.0135 28.9718 22.1424C27.9174 24.2714 26.1658 26.0222 23.9768 27.1355C21.7878 28.2487 19.2778 28.6652 16.819 28.323C14.3601 27.9808 12.0833 26.8983 10.3259 25.2359C8.56853 23.5735 7.42417 21.4197 7.06247 19.0937C6.70077 16.7678 7.14098 14.3935 8.31785 12.3227C9.49471 10.252 11.3456 8.59514 13.5961 7.59767C15.8467 6.60021 18.3771 6.31525 20.8122 6.78505V9.02943C18.8477 8.55002 16.7711 8.69489 14.9022 9.44171C13.0332 10.1885 11.4757 11.4959 10.4695 13.1624C9.46331 14.8289 9.06422 16.7622 9.33372 18.6644C9.60323 20.5665 10.5264 22.3321 11.961 23.6892C13.3956 25.0463 15.262 25.9196 17.2729 26.1745C19.2837 26.4294 21.3274 26.0519 23.0892 25.1001C24.8509 24.1483 26.2329 22.6749 27.0224 20.907C27.8119 19.1391 27.9651 17.1747 27.4583 15.3163H29.8309Z" fill="#EA005A"/>
</svg>
