<svg width="32" height="39" viewBox="0 0 32 39" fill="none" xmlns="http://www.w3.org/2000/svg">
<path d="M2 5.5V33.5C2 34.4283 2.36875 35.3185 3.02513 35.9749C3.6815 36.6313 4.57174 37 5.5 37H26.5C27.4283 37 28.3185 36.6313 28.9749 35.9749C29.6313 35.3185 30 34.4283 30 33.5V13.0985C29.9999 12.6322 29.9067 12.1707 29.7258 11.7409C29.5449 11.3112 29.2799 10.9219 28.9465 10.596L21.1765 2.9975C20.5226 2.35815 19.6445 2.00011 18.73 2H5.5C4.57174 2 3.6815 2.36875 3.02513 3.02513C2.36875 3.6815 2 4.57174 2 5.5V5.5Z" stroke="white" stroke-width="3" stroke-linecap="round" stroke-linejoin="round"/>
<path d="M19.5 2V9C19.5 9.92826 19.8687 10.8185 20.5251 11.4749C21.1815 12.1313 22.0717 12.5 23 12.5H30" stroke="white" stroke-width="3" stroke-linejoin="round"/>
</svg>
