<svg width="37" height="35" viewBox="0 0 37 35" fill="none" xmlns="http://www.w3.org/2000/svg">
<path d="M6.33456 0L4.48144 1.85049L7.23875 4.60648L9.08923 2.75599L6.33324 0H6.33456ZM30.5186 0L27.7613 2.75599L29.6131 4.60648L32.369 1.8518L30.5172 0H30.5186ZM18.4259 0.821269C17.9916 0.826533 17.552 0.85154 17.1098 0.905502C17.0966 0.905502 17.0834 0.902869 17.0703 0.905502C11.732 1.5175 7.48355 5.83048 6.7452 11.145C6.15557 15.4225 7.91919 19.3011 10.8581 21.7992C12.0603 22.8251 12.8734 24.233 13.1614 25.787V33.6839H16.1621C16.6202 34.4696 17.4559 35 18.4259 35C19.3959 35 20.2316 34.4696 20.6897 33.6839H23.6904V28.4193H23.8142V26.8558C23.8142 24.9263 24.8171 22.981 26.4464 21.4688C28.626 19.2867 30.2711 16.1872 30.2711 12.627C30.2711 6.1253 24.9197 0.760727 18.4259 0.821269ZM18.4259 3.45354C23.5128 3.38247 27.6389 7.54672 27.6389 12.627C27.6389 15.383 26.3622 17.8099 24.5946 19.5762L24.6367 19.6183C22.8802 21.2381 21.7444 23.4204 21.4254 25.7884H15.6686C15.379 23.5325 14.4117 21.349 12.5836 19.7828C10.258 17.8086 8.87207 14.8342 9.33535 11.4754C9.9105 7.32956 13.2745 3.99579 17.3967 3.53909C17.737 3.49164 18.0798 3.46352 18.4233 3.45486L18.4259 3.45354ZM0 12.627V15.2593H3.94841V12.627H0ZM32.9034 12.627V15.2593H36.8518V12.627H32.9034ZM7.23875 23.2798L4.48276 26.0345L6.33456 27.8863L9.08792 25.1303L7.23875 23.2798ZM29.6131 23.2798L27.7626 25.1303L30.5172 27.8863L32.369 26.0345L29.6131 23.2798ZM15.7936 28.4206H21.0582V31.0529H15.7936V28.4206Z" fill="#EA005A"/>
</svg>
