<svg width="20" height="16" viewBox="0 0 20 16" fill="none" xmlns="http://www.w3.org/2000/svg">
<path d="M4.2236 16C2.98137 16 1.96687 15.5538 1.18012 14.6614C0.393375 13.7689 0 12.3878 0 10.5179C0 8.43559 0.496894 6.52324 1.49068 4.78088C2.48447 2.99602 3.76812 1.40239 5.34161 0L7.70186 2.67729C6.74948 3.56972 5.98344 4.41965 5.40373 5.22709C4.82402 5.99203 4.45135 6.86321 4.28571 7.84064C5.48654 7.88313 6.41822 8.28685 7.08075 9.05179C7.74327 9.77424 8.07453 10.7304 8.07453 11.9203C8.07453 13.1527 7.70186 14.1514 6.95652 14.9163C6.21118 15.6388 5.30021 16 4.2236 16ZM16.1491 16C14.9068 16 13.8923 15.5538 13.1056 14.6614C12.3188 13.7689 11.9255 12.3878 11.9255 10.5179C11.9255 8.43559 12.4224 6.52324 13.4161 4.78088C14.4099 2.99602 15.6936 1.40239 17.2671 0L19.6273 2.67729C18.6749 3.56972 17.9089 4.41965 17.3292 5.22709C16.7495 5.99203 16.3768 6.86321 16.2112 7.84064C17.412 7.88313 18.3437 8.28685 19.0062 9.05179C19.6687 9.77424 20 10.7304 20 11.9203C20 13.1527 19.6273 14.1514 18.882 14.9163C18.1366 15.6388 17.2257 16 16.1491 16Z" fill="#090D68"/>
</svg>
