<svg width="41" height="35" viewBox="0 0 41 35" fill="none" xmlns="http://www.w3.org/2000/svg">
<path fill-rule="evenodd" clip-rule="evenodd" d="M26.5308 4.51588C26.5308 3.3182 27.0066 2.16956 27.8535 1.32267C28.7004 0.475779 29.849 0 31.0467 0C32.2444 0 33.393 0.475779 34.2399 1.32267C35.0868 2.16956 35.5626 3.3182 35.5626 4.51588C35.5626 5.71357 35.0868 6.8622 34.2399 7.70909C33.393 8.55599 32.2444 9.03177 31.0467 9.03177C29.849 9.03177 28.7004 8.55599 27.8535 7.70909C27.0066 6.8622 26.5308 5.71357 26.5308 4.51588ZM31.0467 2.25794C30.4479 2.25794 29.8735 2.49583 29.4501 2.91928C29.0266 3.34272 28.7888 3.91704 28.7888 4.51588C28.7888 5.11473 29.0266 5.68904 29.4501 6.11249C29.8735 6.53593 30.4479 6.77382 31.0467 6.77382C31.6455 6.77382 32.2199 6.53593 32.6433 6.11249C33.0667 5.68904 33.3046 5.11473 33.3046 4.51588C33.3046 3.91704 33.0667 3.34272 32.6433 2.91928C32.2199 2.49583 31.6455 2.25794 31.0467 2.25794ZM4.51588 10.1607C4.33002 10.1606 4.14701 10.2064 3.98308 10.294C3.81915 10.3816 3.67939 10.5083 3.57619 10.6628C3.47299 10.8174 3.40955 10.9951 3.3915 11.1801C3.37345 11.365 3.40134 11.5516 3.47271 11.7232C2.44418 12.1522 1.56559 12.8759 0.947615 13.8033C0.329642 14.7307 -7.41155e-05 15.8202 2.29099e-07 16.9346V19.1925C-0.000312709 20.2911 0.319975 21.366 0.92159 22.2853C1.52321 23.2045 2.38 23.9283 3.38691 24.3677V31.6112C3.3865 32.3389 3.62051 33.0475 4.05428 33.6318C4.48804 34.2162 5.09849 34.6453 5.79519 34.8555C6.4919 35.0658 7.23781 35.0461 7.92243 34.7993C8.60705 34.5525 9.19397 34.0917 9.59625 33.4853C9.99853 34.0917 10.5854 34.5525 11.2701 34.7993C11.9547 35.0461 12.7006 35.0658 13.3973 34.8555C14.094 34.6453 14.7045 34.2162 15.1382 33.6318C15.572 33.0475 15.806 32.3389 15.8056 31.6112V24.3677C16.8125 23.9283 17.6693 23.2045 18.2709 22.2853C18.8725 21.366 19.1928 20.2911 19.1925 19.1925V16.9346C19.1927 15.8201 18.8631 14.7306 18.2451 13.8032C17.6271 12.8758 16.7484 12.1521 15.7198 11.7232C15.7912 11.5516 15.8191 11.365 15.801 11.1801C15.783 10.9951 15.7195 10.8174 15.6163 10.6628C15.5131 10.5083 15.3733 10.3816 15.2094 10.294C15.0455 10.2064 14.8625 10.1606 14.6766 10.1607H4.51588ZM5.64485 23.5661V21.3534C6.13926 21.2678 6.61284 21.0889 7.04026 20.8261C7.76845 20.3689 8.22342 19.7028 8.50454 18.9532C8.77888 18.2261 8.90193 17.3873 8.96403 16.5101C9.02725 15.6261 9.03177 14.6224 9.03177 13.5476H10.1607C10.1607 14.6224 10.1653 15.625 10.2285 16.5101C10.2906 17.3873 10.4136 18.2261 10.6868 18.9532C10.9691 19.7028 11.4241 20.3689 12.1522 20.8273C12.57 21.0892 13.0385 21.2585 13.5476 21.3534V31.6112C13.5461 31.9025 13.432 32.182 13.2292 32.3912C13.0264 32.6004 12.7505 32.723 12.4594 32.7335C12.1682 32.744 11.8842 32.6415 11.6669 32.4475C11.4495 32.2535 11.3156 31.983 11.2931 31.6925L10.723 23.7084C10.7028 23.4235 10.5754 23.1568 10.3664 22.9621C10.1574 22.7674 9.88243 22.6592 9.59682 22.6592C9.3112 22.6592 9.03621 22.7674 8.82724 22.9621C8.61826 23.1568 8.49085 23.4235 8.47067 23.7084L7.90054 31.6925C7.88215 31.9861 7.74984 32.261 7.53178 32.4586C7.31373 32.6561 7.02716 32.7607 6.73312 32.7501C6.43907 32.7396 6.16078 32.6146 5.95751 32.4018C5.75424 32.1891 5.64206 31.9054 5.64485 31.6112V23.5661V23.5661ZM2.25794 19.1925C2.25794 20.195 2.69372 21.0971 3.38691 21.7169V15.8056H5.64485V19.0153C5.71937 18.9836 5.78259 18.9498 5.83678 18.9159C6.05467 18.7793 6.23982 18.5614 6.39223 18.1595C6.55142 17.7327 6.65528 17.1479 6.71173 16.3498C6.76818 15.5595 6.77382 14.6337 6.77382 13.5476H5.64485C4.74659 13.5476 3.88511 13.9045 3.24994 14.5397C2.61478 15.1748 2.25794 16.0363 2.25794 16.9346V19.1925V19.1925ZM16.9346 19.1925C16.9346 20.195 16.4988 21.0971 15.8056 21.7169V15.8056H13.5476V19.0153C13.4811 18.9874 13.4169 18.9542 13.3557 18.9159C13.1378 18.7793 12.9527 18.5614 12.8003 18.1595C12.6411 17.7327 12.5372 17.1479 12.4808 16.3498C12.4243 15.5595 12.4187 14.6337 12.4187 13.5476H13.5476C14.4459 13.5476 15.3074 13.9045 15.9426 14.5397C16.5777 15.1748 16.9346 16.0363 16.9346 16.9346V19.1925V19.1925ZM24.9232 11.7232C23.8946 12.1522 23.016 12.8759 22.3981 13.8033C21.7801 14.7307 21.4504 15.8202 21.4504 16.9346V19.1925C21.4504 21.193 22.4914 22.9497 24.0584 23.9511L22.6765 26.0002C21.7361 27.3933 22.5941 29.3126 24.2988 29.4865C26.1018 29.6694 28.9231 29.9177 31.0467 29.9177C33.1692 29.9177 35.9916 29.6694 37.7946 29.4865C39.4993 29.3126 40.3573 27.3933 39.4169 26.0002L38.035 23.9511C38.8348 23.4413 39.4931 22.7379 39.949 21.9061C40.4048 21.0743 40.6435 20.141 40.6429 19.1925V16.9346C40.6432 15.8201 40.3135 14.7306 39.6955 13.8032C39.0775 12.8758 38.1989 12.1521 37.1702 11.7232C37.2416 11.5516 37.2695 11.365 37.2515 11.1801C37.2334 10.9951 37.17 10.8174 37.0668 10.6628C36.9636 10.5083 36.8238 10.3816 36.6599 10.294C36.4959 10.2064 36.3129 10.1606 36.1271 10.1607H25.9663C25.7805 10.1606 25.5975 10.2064 25.4335 10.294C25.2696 10.3816 25.1298 10.5083 25.0266 10.6628C24.9234 10.8174 24.86 10.9951 24.8419 11.1801C24.8239 11.365 24.8518 11.5516 24.9232 11.7232ZM23.7084 16.9346C23.7084 16.0363 24.0652 15.1748 24.7004 14.5397C25.3356 13.9045 26.197 13.5476 27.0953 13.5476H28.2243C28.2243 14.6337 28.2186 15.5583 28.1622 16.3498C28.1057 17.1479 28.0019 17.7327 27.8427 18.1584C27.6903 18.5614 27.5051 18.7793 27.2884 18.9148C27.2269 18.9535 27.1623 18.9871 27.0953 19.0153V16.9346H24.8374V21.7169C24.1442 21.0959 23.7084 20.195 23.7084 19.1925V16.9346ZM27.5074 22.8786L27.0953 22.7476V21.3534C27.5897 21.2678 28.0633 21.0889 28.4907 20.8261C29.2189 20.3689 29.6739 19.7028 29.955 18.9532C30.2293 18.2261 30.3524 17.3873 30.4145 16.5101C30.4777 15.6261 30.4822 14.6224 30.4822 13.5476H31.6112C31.6112 14.6224 31.6157 15.625 31.6789 16.5101C31.741 17.3873 31.8641 18.2261 32.1384 18.9532C32.4207 19.7028 32.8745 20.3689 33.6027 20.8273C34.0204 21.0892 34.4889 21.2585 34.9981 21.3534V22.7476L34.586 22.8786L37.5326 27.2432C35.7319 27.4261 33.0326 27.6598 31.0467 27.6598C29.0608 27.6598 26.3615 27.4261 24.5619 27.2432L27.5085 22.8786H27.5074ZM37.256 21.7169C37.9492 21.0959 38.385 20.195 38.385 19.1925V16.9346C38.385 16.0363 38.0282 15.1748 37.393 14.5397C36.7578 13.9045 35.8964 13.5476 34.9981 13.5476H33.8691C33.8691 14.6337 33.8748 15.5583 33.9312 16.3498C33.9877 17.1479 34.0915 17.7327 34.2507 18.1584C34.4031 18.5614 34.5883 18.7793 34.805 18.9148C34.8604 18.9498 34.9236 18.9836 34.9981 19.0153V16.9346H37.256V21.7169Z" fill="white"/>
<path d="M29.0936 31.7756C27.8581 31.7073 26.6263 31.5842 25.4018 31.4064V32.742C25.4022 33.1539 25.5527 33.5515 25.8251 33.8605C26.0976 34.1694 26.4733 34.3684 26.8819 34.4203C27.2905 34.4723 27.704 34.3735 28.045 34.1425C28.3861 33.9115 28.6312 33.5641 28.7346 33.1654L29.0936 31.7756ZM32.9975 31.7666L33.3588 33.1665C33.4622 33.5653 33.7074 33.9127 34.0486 34.1437C34.3897 34.3747 34.8034 34.4735 35.2121 34.4214C35.6207 34.3693 35.9964 34.1701 36.2688 33.861C36.5411 33.5518 36.6914 33.154 36.6915 32.742V31.3906C35.4661 31.5685 34.2337 31.6943 32.9975 31.7677V31.7666Z" fill="white"/>
<path fill-rule="evenodd" clip-rule="evenodd" d="M9.59627 0C8.39858 0 7.24995 0.475779 6.40305 1.32267C5.55616 2.16956 5.08038 3.3182 5.08038 4.51588C5.08038 5.71357 5.55616 6.8622 6.40305 7.70909C7.24995 8.55599 8.39858 9.03177 9.59627 9.03177C10.794 9.03177 11.9426 8.55599 12.7895 7.70909C13.6364 6.8622 14.1121 5.71357 14.1121 4.51588C14.1121 3.3182 13.6364 2.16956 12.7895 1.32267C11.9426 0.475779 10.794 0 9.59627 0ZM7.33832 4.51588C7.33832 3.91704 7.57621 3.34272 7.99966 2.91928C8.42311 2.49583 8.99742 2.25794 9.59627 2.25794C10.1951 2.25794 10.7694 2.49583 11.1929 2.91928C11.6163 3.34272 11.8542 3.91704 11.8542 4.51588C11.8542 5.11473 11.6163 5.68904 11.1929 6.11249C10.7694 6.53593 10.1951 6.77382 9.59627 6.77382C8.99742 6.77382 8.42311 6.53593 7.99966 6.11249C7.57621 5.68904 7.33832 5.11473 7.33832 4.51588Z" fill="white"/>
</svg>
