<svg width="71" height="75" viewBox="0 0 71 75" fill="none" xmlns="http://www.w3.org/2000/svg">
<path d="M29.4637 52.8237L22.3294 56.9601C22.3294 56.9601 18.1506 52.654 15.4071 46.955C12.6637 41.256 22.7112 31.5054 22.7112 31.5054M40.7769 52.9934L47.784 57.3419C47.784 57.3419 52.09 53.1631 55.0032 47.5489C57.9163 41.9347 48.1658 31.8872 48.1658 31.8872M29.4637 52.8237L40.7769 52.9934C40.7769 52.9934 49.5587 33.3226 46.9001 21.967C44.2415 10.6114 35.8839 1.99928 35.8839 1.99928C35.8839 1.99928 27.2718 10.3569 24.2738 21.6276C21.2758 32.8984 29.4637 52.8237 29.4637 52.8237Z" stroke="white" stroke-width="3.5" stroke-linecap="round" stroke-linejoin="round"/>
<path d="M34.8218 72.7063L37.7773 64.2638L32.1207 64.179L34.8218 72.7063Z" fill="black" stroke="white" stroke-width="3.5" stroke-linecap="round" stroke-linejoin="round"/>
<path d="M36.9391 26.0637C37.7319 25.2944 37.7509 24.0282 36.9816 23.2354C36.2123 22.4427 34.946 22.4237 34.1533 23.193C33.3606 23.9623 33.3416 25.2286 34.1109 26.0213C34.8801 26.814 36.1464 26.833 36.9391 26.0637Z" fill="black" stroke="white" stroke-width="3.5" stroke-linecap="round" stroke-linejoin="round"/>
</svg>
