<svg width="16" height="1511" viewBox="0 0 16 1511" fill="none" xmlns="http://www.w3.org/2000/svg">
<path d="M8 1510.01C12.4183 1510.01 16 1506.42 16 1502.01C16 1497.59 12.4183 1494.01 8 1494.01C3.58172 1494.01 0 1497.59 0 1502.01C0 1506.42 3.58172 1510.01 8 1510.01ZM9.5 2.00635C9.5 1.17792 8.82843 0.506348 8 0.506348C7.17157 0.506348 6.5 1.17792 6.5 2.00635H9.5ZM9.5 1498.52C9.5 1497.7 8.82843 1497.02 8 1497.02C7.17157 1497.02 6.5 1497.7 6.5 1498.52H9.5ZM6.5 1479.63C6.5 1480.45 7.17157 1481.13 8 1481.13C8.82843 1481.13 9.5 1480.45 9.5 1479.63H6.5ZM9.5 1472.66C9.5 1471.83 8.82843 1471.16 8 1471.16C7.17157 1471.16 6.5 1471.83 6.5 1472.66H9.5ZM6.5 1453.76C6.5 1454.59 7.17157 1455.26 8 1455.26C8.82843 1455.26 9.5 1454.59 9.5 1453.76H6.5ZM9.5 1446.8C9.5 1445.97 8.82843 1445.3 8 1445.3C7.17157 1445.3 6.5 1445.97 6.5 1446.8H9.5ZM6.5 1427.9C6.5 1428.73 7.17157 1429.4 8 1429.4C8.82843 1429.4 9.5 1428.73 9.5 1427.9H6.5ZM9.5 1420.94C9.5 1420.11 8.82843 1419.44 8 1419.44C7.17157 1419.44 6.5 1420.11 6.5 1420.94H9.5ZM6.5 1402.04C6.5 1402.87 7.17157 1403.54 8 1403.54C8.82843 1403.54 9.5 1402.87 9.5 1402.04H6.5ZM9.5 1395.08C9.5 1394.25 8.82843 1393.58 8 1393.58C7.17157 1393.58 6.5 1394.25 6.5 1395.08H9.5ZM6.5 1376.18C6.5 1377.01 7.17157 1377.68 8 1377.68C8.82843 1377.68 9.5 1377.01 9.5 1376.18H6.5ZM9.5 1369.21C9.5 1368.39 8.82843 1367.71 8 1367.71C7.17157 1367.71 6.5 1368.39 6.5 1369.21H9.5ZM6.5 1350.32C6.5 1351.14 7.17157 1351.82 8 1351.82C8.82843 1351.82 9.5 1351.14 9.5 1350.32H6.5ZM9.5 1343.35C9.5 1342.52 8.82843 1341.85 8 1341.85C7.17157 1341.85 6.5 1342.52 6.5 1343.35H9.5ZM6.5 1324.45C6.5 1325.28 7.17157 1325.95 8 1325.95C8.82843 1325.95 9.5 1325.28 9.5 1324.45H6.5ZM9.5 1317.49C9.5 1316.66 8.82843 1315.99 8 1315.99C7.17157 1315.99 6.5 1316.66 6.5 1317.49H9.5ZM6.5 1298.59C6.5 1299.42 7.17157 1300.09 8 1300.09C8.82843 1300.09 9.5 1299.42 9.5 1298.59H6.5ZM9.5 1291.63C9.5 1290.8 8.82843 1290.13 8 1290.13C7.17157 1290.13 6.5 1290.8 6.5 1291.63H9.5ZM6.5 1272.73C6.5 1273.56 7.17157 1274.23 8 1274.23C8.82843 1274.23 9.5 1273.56 9.5 1272.73H6.5ZM9.5 1265.77C9.5 1264.94 8.82843 1264.27 8 1264.27C7.17157 1264.27 6.5 1264.94 6.5 1265.77H9.5ZM6.5 1246.87C6.5 1247.7 7.17157 1248.37 8 1248.37C8.82843 1248.37 9.5 1247.7 9.5 1246.87H6.5ZM9.5 1239.9C9.5 1239.08 8.82843 1238.4 8 1238.4C7.17157 1238.4 6.5 1239.08 6.5 1239.9H9.5ZM6.5 1221.01C6.5 1221.83 7.17157 1222.51 8 1222.51C8.82843 1222.51 9.5 1221.83 9.5 1221.01H6.5ZM9.5 1214.04C9.5 1213.21 8.82843 1212.54 8 1212.54C7.17157 1212.54 6.5 1213.21 6.5 1214.04H9.5ZM6.5 1195.14C6.5 1195.97 7.17157 1196.64 8 1196.64C8.82843 1196.64 9.5 1195.97 9.5 1195.14H6.5ZM9.5 1188.18C9.5 1187.35 8.82843 1186.68 8 1186.68C7.17157 1186.68 6.5 1187.35 6.5 1188.18H9.5ZM6.5 1169.28C6.5 1170.11 7.17157 1170.78 8 1170.78C8.82843 1170.78 9.5 1170.11 9.5 1169.28H6.5ZM9.5 1162.32C9.5 1161.49 8.82843 1160.82 8 1160.82C7.17157 1160.82 6.5 1161.49 6.5 1162.32H9.5ZM6.5 1143.42C6.5 1144.25 7.17157 1144.92 8 1144.92C8.82843 1144.92 9.5 1144.25 9.5 1143.42H6.5ZM9.5 1136.46C9.5 1135.63 8.82843 1134.96 8 1134.96C7.17157 1134.96 6.5 1135.63 6.5 1136.46H9.5ZM6.5 1117.56C6.5 1118.39 7.17157 1119.06 8 1119.06C8.82843 1119.06 9.5 1118.39 9.5 1117.56H6.5ZM9.5 1110.59C9.5 1109.77 8.82843 1109.09 8 1109.09C7.17157 1109.09 6.5 1109.77 6.5 1110.59H9.5ZM6.5 1091.69C6.5 1092.52 7.17157 1093.19 8 1093.19C8.82843 1093.19 9.5 1092.52 9.5 1091.69H6.5ZM9.5 1084.73C9.5 1083.9 8.82843 1083.23 8 1083.23C7.17157 1083.23 6.5 1083.9 6.5 1084.73H9.5ZM6.5 1065.83C6.5 1066.66 7.17157 1067.33 8 1067.33C8.82843 1067.33 9.5 1066.66 9.5 1065.83H6.5ZM9.5 1058.87C9.5 1058.04 8.82843 1057.37 8 1057.37C7.17157 1057.37 6.5 1058.04 6.5 1058.87H9.5ZM6.5 1039.97C6.5 1040.8 7.17157 1041.47 8 1041.47C8.82843 1041.47 9.5 1040.8 9.5 1039.97H6.5ZM9.5 1033.01C9.5 1032.18 8.82843 1031.51 8 1031.51C7.17157 1031.51 6.5 1032.18 6.5 1033.01H9.5ZM6.5 1014.11C6.5 1014.94 7.17157 1015.61 8 1015.61C8.82843 1015.61 9.5 1014.94 9.5 1014.11H6.5ZM9.5 1007.15C9.5 1006.32 8.82843 1005.65 8 1005.65C7.17157 1005.65 6.5 1006.32 6.5 1007.15H9.5ZM6.5 988.247C6.5 989.075 7.17157 989.747 8 989.747C8.82843 989.747 9.5 989.075 9.5 988.247H6.5ZM9.5 981.284C9.5 980.455 8.82843 979.784 8 979.784C7.17157 979.784 6.5 980.455 6.5 981.284H9.5ZM6.5 962.384C6.5 963.213 7.17157 963.884 8 963.884C8.82843 963.884 9.5 963.213 9.5 962.384H6.5ZM9.5 955.422C9.5 954.593 8.82843 953.922 8 953.922C7.17157 953.922 6.5 954.593 6.5 955.422H9.5ZM6.5 936.522C6.5 937.351 7.17157 938.022 8 938.022C8.82843 938.022 9.5 937.351 9.5 936.522H6.5ZM9.5 929.559C9.5 928.731 8.82843 928.059 8 928.059C7.17157 928.059 6.5 928.731 6.5 929.559H9.5ZM6.5 910.66C6.5 911.489 7.17157 912.16 8 912.16C8.82843 912.16 9.5 911.489 9.5 910.66H6.5ZM9.5 903.697C9.5 902.869 8.82843 902.197 8 902.197C7.17157 902.197 6.5 902.869 6.5 903.697H9.5ZM6.5 884.798C6.5 885.626 7.17157 886.298 8 886.298C8.82843 886.298 9.5 885.626 9.5 884.798H6.5ZM9.5 877.835C9.5 877.007 8.82843 876.335 8 876.335C7.17157 876.335 6.5 877.007 6.5 877.835H9.5ZM6.5 858.936C6.5 859.764 7.17157 860.436 8 860.436C8.82843 860.436 9.5 859.764 9.5 858.936H6.5ZM9.5 851.973C9.5 851.145 8.82843 850.473 8 850.473C7.17157 850.473 6.5 851.145 6.5 851.973H9.5ZM6.5 833.074C6.5 833.902 7.17157 834.574 8 834.574C8.82843 834.574 9.5 833.902 9.5 833.074H6.5ZM9.5 826.111C9.5 825.282 8.82843 824.611 8 824.611C7.17157 824.611 6.5 825.282 6.5 826.111H9.5ZM6.5 807.212C6.5 808.04 7.17157 808.712 8 808.712C8.82843 808.712 9.5 808.04 9.5 807.212H6.5ZM9.5 800.249C9.5 799.42 8.82843 798.749 8 798.749C7.17157 798.749 6.5 799.42 6.5 800.249H9.5ZM6.5 781.35C6.5 782.178 7.17157 782.85 8 782.85C8.82843 782.85 9.5 782.178 9.5 781.35H6.5ZM9.5 774.387C9.5 773.558 8.82843 772.887 8 772.887C7.17157 772.887 6.5 773.558 6.5 774.387H9.5ZM6.5 755.487C6.5 756.316 7.17157 756.987 8 756.987C8.82843 756.987 9.5 756.316 9.5 755.487H6.5ZM9.5 748.525C9.5 747.696 8.82843 747.025 8 747.025C7.17157 747.025 6.5 747.696 6.5 748.525H9.5ZM6.5 729.625C6.5 730.454 7.17157 731.125 8 731.125C8.82843 731.125 9.5 730.454 9.5 729.625H6.5ZM9.5 722.662C9.5 721.834 8.82843 721.162 8 721.162C7.17157 721.162 6.5 721.834 6.5 722.662H9.5ZM6.5 703.763C6.5 704.592 7.17157 705.263 8 705.263C8.82843 705.263 9.5 704.592 9.5 703.763H6.5ZM9.5 696.8C9.5 695.972 8.82843 695.3 8 695.3C7.17157 695.3 6.5 695.972 6.5 696.8H9.5ZM6.5 677.901C6.5 678.729 7.17157 679.401 8 679.401C8.82843 679.401 9.5 678.729 9.5 677.901H6.5ZM9.5 670.938C9.5 670.11 8.82843 669.438 8 669.438C7.17157 669.438 6.5 670.11 6.5 670.938H9.5ZM6.5 652.039C6.5 652.867 7.17157 653.539 8 653.539C8.82843 653.539 9.5 652.867 9.5 652.039H6.5ZM9.5 645.076C9.5 644.248 8.82843 643.576 8 643.576C7.17157 643.576 6.5 644.248 6.5 645.076H9.5ZM6.5 626.177C6.5 627.005 7.17157 627.677 8 627.677C8.82843 627.677 9.5 627.005 9.5 626.177H6.5ZM9.5 619.214C9.5 618.386 8.82843 617.714 8 617.714C7.17157 617.714 6.5 618.386 6.5 619.214H9.5ZM6.5 600.315C6.5 601.143 7.17157 601.815 8 601.815C8.82843 601.815 9.5 601.143 9.5 600.315H6.5ZM9.5 593.352C9.5 592.523 8.82843 591.852 8 591.852C7.17157 591.852 6.5 592.523 6.5 593.352H9.5ZM6.5 574.453C6.5 575.281 7.17157 575.953 8 575.953C8.82843 575.953 9.5 575.281 9.5 574.453H6.5ZM9.5 567.49C9.5 566.661 8.82843 565.99 8 565.99C7.17157 565.99 6.5 566.661 6.5 567.49H9.5ZM6.5 548.59C6.5 549.419 7.17157 550.09 8 550.09C8.82843 550.09 9.5 549.419 9.5 548.59H6.5ZM9.5 541.628C9.5 540.799 8.82843 540.128 8 540.128C7.17157 540.128 6.5 540.799 6.5 541.628H9.5ZM6.5 522.728C6.5 523.557 7.17157 524.228 8 524.228C8.82843 524.228 9.5 523.557 9.5 522.728H6.5ZM9.5 515.765C9.5 514.937 8.82843 514.265 8 514.265C7.17157 514.265 6.5 514.937 6.5 515.765H9.5ZM6.5 496.866C6.5 497.695 7.17157 498.366 8 498.366C8.82843 498.366 9.5 497.695 9.5 496.866H6.5ZM9.5 489.903C9.5 489.075 8.82843 488.403 8 488.403C7.17157 488.403 6.5 489.075 6.5 489.903H9.5ZM6.5 471.004C6.5 471.833 7.17157 472.504 8 472.504C8.82843 472.504 9.5 471.833 9.5 471.004H6.5ZM9.5 464.041C9.5 463.213 8.82843 462.541 8 462.541C7.17157 462.541 6.5 463.213 6.5 464.041H9.5ZM6.5 445.142C6.5 445.97 7.17157 446.642 8 446.642C8.82843 446.642 9.5 445.97 9.5 445.142H6.5ZM9.5 438.179C9.5 437.351 8.82843 436.679 8 436.679C7.17157 436.679 6.5 437.351 6.5 438.179H9.5ZM6.5 419.28C6.5 420.108 7.17157 420.78 8 420.78C8.82843 420.78 9.5 420.108 9.5 419.28H6.5ZM9.5 412.317C9.5 411.489 8.82843 410.817 8 410.817C7.17157 410.817 6.5 411.489 6.5 412.317H9.5ZM6.5 393.418C6.5 394.246 7.17157 394.918 8 394.918C8.82843 394.918 9.5 394.246 9.5 393.418H6.5ZM9.5 386.455C9.5 385.627 8.82843 384.955 8 384.955C7.17157 384.955 6.5 385.627 6.5 386.455H9.5ZM6.5 367.556C6.5 368.384 7.17157 369.056 8 369.056C8.82843 369.056 9.5 368.384 9.5 367.556H6.5ZM9.5 360.593C9.5 359.765 8.82843 359.093 8 359.093C7.17157 359.093 6.5 359.765 6.5 360.593H9.5ZM6.5 341.694C6.5 342.522 7.17157 343.194 8 343.194C8.82843 343.194 9.5 342.522 9.5 341.694H6.5ZM9.5 334.731C9.5 333.903 8.82843 333.231 8 333.231C7.17157 333.231 6.5 333.903 6.5 334.731H9.5ZM6.5 315.832C6.5 316.66 7.17157 317.332 8 317.332C8.82843 317.332 9.5 316.66 9.5 315.832H6.5ZM9.5 308.869C9.5 308.041 8.82843 307.369 8 307.369C7.17157 307.369 6.5 308.041 6.5 308.869H9.5ZM6.5 289.97C6.5 290.798 7.17157 291.47 8 291.47C8.82843 291.47 9.5 290.798 9.5 289.97H6.5ZM9.5 283.007C9.5 282.178 8.82843 281.507 8 281.507C7.17157 281.507 6.5 282.178 6.5 283.007H9.5ZM6.5 264.108C6.5 264.936 7.17157 265.608 8 265.608C8.82843 265.608 9.5 264.936 9.5 264.108H6.5ZM9.5 257.145C9.5 256.316 8.82843 255.645 8 255.645C7.17157 255.645 6.5 256.316 6.5 257.145H9.5ZM6.5 238.246C6.5 239.074 7.17157 239.746 8 239.746C8.82843 239.746 9.5 239.074 9.5 238.246H6.5ZM9.5 231.283C9.5 230.454 8.82843 229.783 8 229.783C7.17157 229.783 6.5 230.454 6.5 231.283H9.5ZM6.5 212.384C6.5 213.212 7.17157 213.884 8 213.884C8.82843 213.884 9.5 213.212 9.5 212.384H6.5ZM9.5 205.421C9.5 204.592 8.82843 203.921 8 203.921C7.17157 203.921 6.5 204.592 6.5 205.421H9.5ZM6.5 186.521C6.5 187.35 7.17157 188.021 8 188.021C8.82843 188.021 9.5 187.35 9.5 186.521H6.5ZM9.5 179.559C9.5 178.73 8.82843 178.059 8 178.059C7.17157 178.059 6.5 178.73 6.5 179.559H9.5ZM6.5 160.659C6.5 161.488 7.17157 162.159 8 162.159C8.82843 162.159 9.5 161.488 9.5 160.659H6.5ZM9.5 153.697C9.5 152.868 8.82843 152.197 8 152.197C7.17157 152.197 6.5 152.868 6.5 153.697H9.5ZM6.5 134.797C6.5 135.626 7.17157 136.297 8 136.297C8.82843 136.297 9.5 135.626 9.5 134.797H6.5ZM9.5 127.834C9.5 127.006 8.82843 126.334 8 126.334C7.17157 126.334 6.5 127.006 6.5 127.834H9.5ZM6.5 108.935C6.5 109.764 7.17157 110.435 8 110.435C8.82843 110.435 9.5 109.764 9.5 108.935H6.5ZM9.5 101.972C9.5 101.144 8.82843 100.472 8 100.472C7.17157 100.472 6.5 101.144 6.5 101.972H9.5ZM6.5 83.0733C6.5 83.9017 7.17157 84.5733 8 84.5733C8.82843 84.5733 9.5 83.9017 9.5 83.0733H6.5ZM9.5 76.1103C9.5 75.2819 8.82843 74.6103 8 74.6103C7.17157 74.6103 6.5 75.2819 6.5 76.1103H9.5ZM6.5 57.2112C6.5 58.0396 7.17157 58.7112 8 58.7112C8.82843 58.7112 9.5 58.0396 9.5 57.2112H6.5ZM9.5 50.2483C9.5 49.4199 8.82843 48.7483 8 48.7483C7.17157 48.7483 6.5 49.4199 6.5 50.2483H9.5ZM6.5 31.3491C6.5 32.1775 7.17157 32.8491 8 32.8491C8.82843 32.8491 9.5 32.1775 9.5 31.3491H6.5ZM9.5 24.3863C9.5 23.5578 8.82843 22.8863 8 22.8863C7.17157 22.8863 6.5 23.5578 6.5 24.3863H9.5ZM6.5 5.48705C6.5 6.31548 7.17157 6.98705 8 6.98705C8.82843 6.98705 9.5 6.31548 9.5 5.48705H6.5ZM9.5 1502.01V1498.52H6.5V1502.01H9.5ZM9.5 1479.63V1472.66H6.5V1479.63H9.5ZM9.5 1453.76V1446.8H6.5L6.5 1453.76H9.5ZM9.5 1427.9V1420.94H6.5V1427.9H9.5ZM9.5 1402.04V1395.08H6.5L6.5 1402.04H9.5ZM9.5 1376.18V1369.21H6.5V1376.18H9.5ZM9.5 1350.32V1343.35H6.5V1350.32H9.5ZM9.5 1324.45V1317.49H6.5L6.5 1324.45H9.5ZM9.5 1298.59L9.5 1291.63H6.5V1298.59H9.5ZM9.5 1272.73V1265.77H6.5L6.5 1272.73H9.5ZM9.5 1246.87V1239.9H6.5V1246.87H9.5ZM9.5 1221.01V1214.04H6.5V1221.01H9.5ZM9.5 1195.14V1188.18H6.5L6.5 1195.14H9.5ZM9.5 1169.28L9.5 1162.32H6.5V1169.28H9.5ZM9.5 1143.42V1136.46H6.5L6.5 1143.42H9.5ZM9.5 1117.56V1110.59H6.5V1117.56H9.5ZM9.5 1091.69V1084.73H6.5V1091.69H9.5ZM9.5 1065.83V1058.87H6.5L6.5 1065.83H9.5ZM9.5 1039.97L9.5 1033.01H6.5V1039.97H9.5ZM9.5 1014.11L9.5 1007.15H6.5L6.5 1014.11H9.5ZM9.5 988.247V981.284H6.5V988.247H9.5ZM9.5 962.384V955.422H6.5V962.384H9.5ZM9.5 936.522V929.559H6.5L6.5 936.522H9.5ZM9.5 910.66L9.5 903.697H6.5L6.5 910.66H9.5ZM9.5 884.798L9.5 877.835H6.5L6.5 884.798H9.5ZM9.5 858.936V851.973H6.5L6.5 858.936H9.5ZM9.5 833.074V826.111H6.5V833.074H9.5ZM9.5 807.212V800.249H6.5V807.212H9.5ZM9.5 781.35L9.5 774.387H6.5L6.5 781.35H9.5ZM9.5 755.487L9.5 748.525H6.5V755.487H9.5ZM9.5 729.625V722.662H6.5L6.5 729.625H9.5ZM9.5 703.763V696.8H6.5V703.763H9.5ZM9.5 677.901V670.938H6.5V677.901H9.5ZM9.5 652.039L9.5 645.076H6.5L6.5 652.039H9.5ZM9.5 626.177L9.5 619.214H6.5V626.177H9.5ZM9.5 600.315V593.352H6.5L6.5 600.315H9.5ZM9.5 574.453V567.49H6.5V574.453H9.5ZM9.5 548.59V541.628H6.5V548.59H9.5ZM9.5 522.728V515.765H6.5L6.5 522.728H9.5ZM9.5 496.866L9.5 489.903H6.5V496.866H9.5ZM9.5 471.004V464.041H6.5L6.5 471.004H9.5ZM9.5 445.142V438.179H6.5V445.142H9.5ZM9.5 419.28V412.317H6.5V419.28H9.5ZM9.5 393.418V386.455H6.5L6.5 393.418H9.5ZM9.5 367.556V360.593H6.5V367.556H9.5ZM9.5 341.694V334.731H6.5L6.5 341.694H9.5ZM9.5 315.832V308.869H6.5V315.832H9.5ZM9.5 289.97V283.007H6.5V289.97H9.5ZM9.5 264.108V257.145H6.5L6.5 264.108H9.5ZM9.5 238.246V231.283H6.5L6.5 238.246H9.5ZM9.5 212.384V205.421H6.5L6.5 212.384H9.5ZM9.5 186.521V179.559H6.5L6.5 186.521H9.5ZM9.5 160.659V153.697H6.5V160.659H9.5ZM9.5 134.797V127.834H6.5V134.797H9.5ZM9.5 108.935V101.972H6.5L6.5 108.935H9.5ZM9.5 83.0733V76.1103H6.5V83.0733H9.5ZM9.5 57.2112V50.2483H6.5L6.5 57.2112H9.5ZM9.5 31.3491V24.3863H6.5V31.3491H9.5ZM9.5 5.48705V2.00635H6.5V5.48705H9.5Z" fill="#EA005A"/>
</svg>
